<svg class="svg-icon" style="width: 20em;height: 20em;vertical-align: middle;fill: currentColor;overflow: hidden;" viewBox="0 0 1024 1024" version="1.1" xmlns="http://www.w3.org/2000/svg"><path d="M512.085333 661.333333a149.333333 149.333333 0 0 1-149.333333-149.333333 149.333333 149.333333 0 0 1 149.333333-149.333333 149.333333 149.333333 0 0 1 149.333334 149.333333 149.333333 149.333333 0 0 1-149.333334 149.333333m317.013334-107.946666c1.706667-13.653333 2.986667-27.306667 2.986666-41.386667s-1.28-28.16-2.986666-42.666667l90.026666-69.546666c8.106667-6.4 10.24-17.92 5.12-27.306667l-85.333333-147.626667c-5.12-9.386667-16.64-13.226667-26.026667-9.386666l-106.24 42.666666c-22.186667-16.64-45.226667-31.146667-72.106666-41.813333l-15.786667-113.066667a21.589333 21.589333 0 0 0-21.333333-17.92h-170.666667c-10.666667 0-19.626667 7.68-21.333333 17.92l-15.786667 113.066667c-26.88 10.666667-49.92 25.173333-72.106667 41.813333l-106.24-42.666666c-9.386667-3.84-20.906667 0-26.026666 9.386666l-85.333334 147.626667c-5.546667 9.386667-2.986667 20.906667 5.12 27.306667L195.072 469.333333c-1.706667 14.506667-2.986667 28.586667-2.986667 42.666667s1.28 27.733333 2.986667 41.386667l-90.026667 70.826666c-8.106667 6.4-10.666667 17.92-5.12 27.306667l85.333334 147.626667c5.12 9.386667 16.64 12.8 26.026666 9.386666l106.24-43.093333c22.186667 17.066667 45.226667 31.573333 72.106667 42.24l15.786667 113.066667c1.706667 10.24 10.666667 17.92 21.333333 17.92h170.666667c10.666667 0 19.626667-7.68 21.333333-17.92l15.786667-113.066667c26.88-11.093333 49.92-25.173333 72.106666-42.24l106.24 43.093333c9.386667 3.413333 20.906667 0 26.026667-9.386666l85.333333-147.626667c5.12-9.386667 2.986667-20.906667-5.12-27.306667z" fill="#42A5F5" /></svg>